<svg width="201" height="35" viewBox="0 0 201 35" fill="none" xmlns="http://www.w3.org/2000/svg">
<path d="M62.593 14.437C62.593 15.6198 62.3197 16.6158 61.7733 17.4251C61.2292 18.2343 60.3473 18.639 59.1276 18.639C57.9079 18.639 57.0076 18.2574 56.4266 17.4942C55.8433 16.7288 55.5516 15.8007 55.5516 14.7102C55.5516 13.2162 56.0611 12.0011 57.0802 11.065C58.0993 10.1289 59.2913 9.66089 60.6562 9.66089C61.9658 9.66089 63.1671 10.152 64.2599 11.1342C64.8225 11.6437 65.2767 12.3896 65.6225 13.3718C65.9684 14.354 66.1413 15.5091 66.1413 16.8371C66.1413 19.2949 65.573 21.3873 64.4363 23.1142C63.2996 24.8434 61.7122 25.9535 59.674 26.4446L65.7055 31.1654L64.2841 32.9949L56.8347 26.6902C54.3054 26.5634 52.3134 25.5858 50.8585 23.7574C49.4014 21.9291 48.6728 19.6131 48.6728 16.8095C48.6728 14.0081 49.4555 11.6841 51.0211 9.83727C52.5866 7.99047 54.7158 7.06707 57.4088 7.06707V9.11446C55.5159 9.11446 53.9734 9.86032 52.7814 11.3521C51.5894 12.8438 50.9934 14.6906 50.9934 16.8925C50.9934 19.0943 51.5894 20.9411 52.7814 22.4329C53.9734 23.9246 55.5159 24.6705 57.4088 24.6705C59.2994 24.6705 60.8407 23.9246 62.0327 22.4329C63.2247 20.9411 63.8207 19.1716 63.8207 17.1242C63.8207 15.0768 63.5025 13.6623 62.8662 12.8807C62.2298 12.0968 61.507 11.7048 60.6977 11.7048C59.8885 11.7048 59.1922 11.9873 58.6088 12.5521C58.0255 13.117 57.7339 13.8364 57.7339 14.7102C57.7339 15.2543 57.8526 15.7039 58.0901 16.059C58.3276 16.414 58.6734 16.5916 59.1276 16.5916C59.983 16.5916 60.4107 15.8734 60.4107 14.437H62.593ZM78.6435 14.5719H76.5408V12.7977H80.9607V24.8088H83.1983V25.9535C82.525 26.3709 81.6293 26.5795 80.5111 26.5795C79.3928 26.5795 78.7784 26.0976 78.6677 25.1339C76.7587 26.2083 75.0444 26.7455 73.525 26.7455C72.0056 26.7455 70.9497 26.2809 70.3571 25.3518C69.7669 24.4249 69.4718 23.143 69.4718 21.506V14.5719H67.369V12.7977H71.7924V21.506C71.7924 22.5597 71.9284 23.3551 72.2005 23.8923C72.4725 24.4295 73.1008 24.6981 74.0853 24.6981C75.0675 24.6981 76.5869 24.1517 78.6435 23.0588V14.5719ZM86.6982 14.5753H84.5955V12.8011H89.0154V24.6739H91.3913V26.4481H84.5678V24.6739H86.6982V14.5753ZM87.7876 10.3733C87.3887 10.3733 87.0613 10.2281 86.8054 9.93756C86.5518 9.64475 86.425 9.29429 86.425 8.8862C86.425 8.4758 86.5656 8.11612 86.8469 7.80717C87.1282 7.49822 87.4694 7.34374 87.8706 7.34374C88.2718 7.34374 88.5992 7.48899 88.8528 7.7795C89.1087 8.07001 89.2367 8.42046 89.2367 8.83086C89.2367 9.23896 89.0949 9.59863 88.8113 9.90989C88.53 10.2188 88.1888 10.3733 87.7876 10.3733ZM93.0271 19.6246C93.0271 17.568 93.5782 15.8711 94.6802 14.5338C95.78 13.1966 97.2487 12.5279 99.0863 12.5279C100.926 12.5279 102.464 12.9014 103.7 13.6485V16.8959H101.791V15.0664C101.007 14.739 100.179 14.5753 99.3076 14.5753C98.0511 14.5753 97.0769 15.048 96.3853 15.9933C95.6936 16.9409 95.3477 18.1513 95.3477 19.6246C95.3477 21.0979 95.6936 22.3084 96.3853 23.256C97.0769 24.2013 98.0511 24.6739 99.3076 24.6739C100.015 24.6739 100.661 24.5875 101.244 24.4145C101.825 24.2416 102.216 24.0964 102.417 23.9788C102.617 23.8612 102.927 23.656 103.347 23.3632L104.357 24.8918C103.063 26.1115 101.402 26.7213 99.3733 26.7213C97.3444 26.7213 95.78 26.0527 94.6802 24.7154C93.5782 23.3782 93.0271 21.6812 93.0271 19.6246ZM109.458 20.9907V24.6739H111.561V26.4481H105.038V24.6739H107.141V7.75183H105.038V5.97766H109.458V18.7773L111.125 18.179L114.345 14.5753H113.335V12.8011H118.467V14.5753H117.291L112.979 19.2684L117.319 24.8123H119.394V25.957C118.993 26.1945 118.638 26.3582 118.329 26.4481C118.02 26.538 117.529 26.583 116.856 26.583C116.182 26.583 115.582 26.2383 115.054 25.5489L111.125 20.3889L109.458 20.9907ZM135.362 26.4481H128.566V24.6739H130.665V17.7674C130.665 16.7138 130.529 15.9183 130.257 15.3811C129.983 14.8439 129.359 14.5753 128.386 14.5753C127.413 14.5753 126.071 15.0307 124.36 15.9414V24.6739H126.463V26.4481H119.941V24.6739H122.04V14.5753H119.941V12.8011H123.842L124.115 14.0289C125.953 13.0282 127.604 12.5279 129.071 12.5279C130.535 12.5279 131.585 13.0559 132.221 14.1119C134.096 13.0559 135.77 12.5279 137.243 12.5279C138.716 12.5279 139.749 12.9925 140.342 13.9217C140.932 14.8485 141.227 16.1305 141.227 17.7674V24.8123H143.465V25.957C142.792 26.3743 142.015 26.583 141.134 26.583C140.251 26.583 139.659 26.4331 139.36 26.1334C139.06 25.8336 138.91 25.3472 138.91 24.6739V17.7674C138.91 16.7138 138.773 15.9183 138.499 15.3811C138.226 14.8439 137.621 14.5753 136.683 14.5753C135.747 14.5753 134.46 14.9846 132.823 15.8031C132.932 16.4048 132.986 17.0596 132.986 17.7674V24.6739H135.362V26.4481ZM156.648 18.6978V20.1434H147.013C147.105 21.4714 147.497 22.5585 148.189 23.4047C148.881 24.2508 149.809 24.6739 150.973 24.6739C151.736 24.6739 152.423 24.5921 153.034 24.4284C153.643 24.2647 154.065 24.1148 154.3 23.9788C154.538 23.8427 154.866 23.6375 155.286 23.3632L156.296 24.8918C154.912 26.1115 153.183 26.7213 151.108 26.7213C149.033 26.7213 147.445 26.0527 146.346 24.7154C145.246 23.3782 144.696 21.6812 144.696 19.6246C144.696 17.568 145.246 15.8711 146.346 14.5338C147.445 13.1966 148.946 12.5279 150.849 12.5279C152.751 12.5279 154.193 13.1009 155.175 14.2468C156.157 15.395 156.648 16.8786 156.648 18.6978ZM154.328 18.2067C154.219 17.0954 153.887 16.2123 153.332 15.5575C152.778 14.9027 151.988 14.5753 150.959 14.5753C149.931 14.5753 149.089 14.9073 148.435 15.5713C147.78 16.2354 147.343 17.1138 147.124 18.2067H154.328ZM162.434 16.2146V24.6739H164.81V26.4481H158.014V24.6739H160.114V14.5753H158.014V12.8011H161.916L162.244 14.2468C162.862 13.9009 163.362 13.6335 163.745 13.4444C164.128 13.253 164.678 13.0525 165.395 12.8426C166.114 12.6328 166.81 12.5279 167.484 12.5279C169.049 12.5279 170.127 12.9925 170.717 13.9217C171.31 14.8485 171.606 16.1305 171.606 17.7674V24.8123H173.844V25.957C173.17 26.3743 172.392 26.583 171.509 26.583C170.626 26.583 170.035 26.4331 169.735 26.1334C169.435 25.8336 169.285 25.3472 169.285 24.6739V17.7674C169.285 16.7138 169.149 15.9183 168.877 15.3811C168.603 14.8439 167.975 14.5753 166.993 14.5753C166.01 14.5753 164.491 15.1217 162.434 16.2146ZM185.658 14.5719H183.555V12.7977H187.978V24.8088H190.216V25.9535C189.543 26.3709 188.647 26.5795 187.529 26.5795C186.408 26.5795 185.794 26.0976 185.685 25.1339C183.774 26.2083 182.059 26.7455 180.539 26.7455C179.02 26.7455 177.965 26.2809 177.375 25.3518C176.782 24.4249 176.486 23.143 176.486 21.506V14.5719H174.387V12.7977H178.807V21.506C178.807 22.5597 178.944 23.3551 179.218 23.8923C179.49 24.4295 180.117 24.6981 181.099 24.6981C182.082 24.6981 183.601 24.1517 185.658 23.0588V14.5719ZM12.9368 11.8836C13.2896 11.4368 13.6658 11.0106 14.0653 10.605L13.4394 9.97906L12.822 9.36139C10.9688 11.2169 9.64131 13.531 8.97507 16.0674C8.30883 18.6038 8.32773 21.2716 9.02986 23.7982L10.7314 23.322C10.1881 21.3749 10.1044 19.3282 10.4871 17.3432C10.8698 15.3582 11.7086 13.4892 12.9368 11.8836Z" fill="black"/>
<path d="M37.242 7.08611L37.4709 6.85682L36.8539 6.23084C35.0757 4.44012 32.9594 3.02058 30.6279 2.05469C28.2965 1.08879 25.7963 0.595792 23.2727 0.604326C19.1229 0.599175 15.0849 1.9493 11.7727 4.44941C11.7059 3.51659 11.2887 2.64357 10.6049 2.00561C9.92108 1.36765 9.02125 1.01198 8.08605 1.01C7.59669 1.00771 7.11173 1.10241 6.65919 1.28863C6.20665 1.47485 5.79549 1.74891 5.44948 2.09495C5.10347 2.441 4.82946 2.85218 4.64328 3.30474C4.4571 3.75729 4.36244 4.24226 4.36478 4.73161C4.36283 5.6741 4.72025 6.58188 5.36422 7.27006C6.00819 7.95824 6.89028 8.37505 7.83082 8.43559C2.21053 16.0746 2.9994 26.6722 9.69146 33.3933L10.3091 34.0107L10.4326 33.8958C10.8206 34.084 11.2792 34.181 11.8084 34.187C15.1769 34.187 21.474 30.1479 27.4885 24.1334C30.9891 20.6411 33.8994 16.9547 35.6898 13.7709C37.3831 10.7724 37.8946 8.49715 37.242 7.08611ZM6.7013 6.11602C6.51873 5.93557 6.37377 5.72069 6.27485 5.48382C6.17592 5.24695 6.12498 4.99281 6.12498 4.73611C6.12498 4.47941 6.17592 4.22527 6.27485 3.9884C6.37377 3.75153 6.51873 3.53665 6.7013 3.3562C6.88176 3.17352 7.09668 3.02849 7.33361 2.9295C7.57054 2.83051 7.82477 2.77954 8.08155 2.77954C8.33833 2.77954 8.59256 2.83051 8.82949 2.9295C9.06642 3.02849 9.28136 3.17352 9.46182 3.3562C10.2289 4.11428 10.2289 5.35759 9.46182 6.12501C8.72967 6.85682 7.43345 6.85682 6.7013 6.12501M9.1706 30.0684C4.13755 23.1298 4.88459 13.5648 10.9344 7.49179C14.2327 4.19348 18.6069 2.37677 23.2724 2.37677C27.0469 2.37677 30.636 3.57615 33.6082 5.7809C30.0806 6.48642 24.4451 10.2876 19.0392 15.7024C15.5379 19.2034 12.619 22.8811 10.8286 26.0646C10.0852 27.312 9.52668 28.6606 9.1706 30.0684ZM34.155 12.9156C32.4437 15.967 29.6307 19.5122 26.2352 22.8987C19.9741 29.1602 14.2414 32.4409 11.8077 32.4409C11.4196 32.4409 11.1462 32.3586 10.9873 32.1939C10.4755 31.6911 10.7051 29.8657 12.3631 26.9288C14.083 23.8775 16.896 20.3322 20.2825 16.9457C26.5444 10.6846 32.2764 7.41293 34.7107 7.41293C35.0988 7.41293 35.372 7.49225 35.5304 7.65087C36.0423 8.15373 35.8129 9.97874 34.155 12.9156Z" fill="black"/>
</svg>
